# xmcd
#
# Track frame offsets: 
#        150
#        22865
#        35514
#        51260
#        69075
#        84389
#        97846
#        113010
#        127018
#        145153
#        159885
#        174272
#        198276
#        210626
#
# Disc length: 2961 seconds
#
# Revision: 0
# Processed by: cddbd v1.5.2PL0 Copyright (c) Steve Scherf et al.
# Submitted via: ExactAudioCopy v0.95b4
#
DISCID=a80b8f0e
DTITLE=Native Outlaws - Wrong Right Now
DYEAR=2008
DGENRE=Native American
TTITLE0=Wrong Right Now
TTITLE1=Guitars, Cadillacs
TTITLE2=Folsom Prison Blues
TTITLE3=Long Haired Country Boy
TTITLE4=Silver Wings
TTITLE5=Pretty Woman
TTITLE6=Ride Me High
TTITLE7=Ring Of Fire
TTITLE8=Ain't Living Long Like This
TTITLE9=It's All Over Now
TTITLE10=Runaway
TTITLE11=Margaritaville
TTITLE12=Swinging
TTITLE13=Band Intro
EXTD=
EXTT0=
EXTT1=
EXTT2=
EXTT3=
EXTT4=
EXTT5=
EXTT6=
EXTT7=
EXTT8=
EXTT9=
EXTT10=
EXTT11=
EXTT12=
EXTT13=
PLAYORDER=
